<svg xmlns="http://www.w3.org/2000/svg" viewBox="0 0 150.67 51.87"><defs><style>.cls-1{fill:#f8f9fd;}</style></defs><g id="Capa_2" data-name="Capa 2"><g id="Capa_1-2" data-name="Capa 1"><g id="DESKTOP"><g id="_-design-to-developers-_Desktop_" data-name="!-design-to-developers-(Desktop)"><g id="splash-screen"><path id="appStoreBadge" class="cls-1" d="M139.56,0a11.11,11.11,0,0,1,11.11,11.12h0V40.76a11.11,11.11,0,0,1-11.11,11.11H11.12A11.12,11.12,0,0,1,0,40.76H0V11.12A11.12,11.12,0,0,1,11.12,0H139.56Zm0,1.24H11.12a9.88,9.88,0,0,0-9.88,9.88h0V40.76a9.88,9.88,0,0,0,9.88,9.88H139.56a9.89,9.89,0,0,0,9.88-9.88h0V11.12a9.88,9.88,0,0,0-9.88-9.88ZM64.91,27.17c2.9,0,4.81,2.28,4.81,5.8s-1.9,5.79-4.76,5.79a3.88,3.88,0,0,1-3.6-2h0V42.4H59V27.29h2.27v1.88h.05A4,4,0,0,1,64.91,27.17Zm12.17,0c2.89,0,4.81,2.28,4.81,5.8s-1.9,5.79-4.77,5.79a3.89,3.89,0,0,1-3.6-2h0V42.4H71.13V27.29h2.26v1.88h0A4.05,4.05,0,0,1,77.08,27.17Zm-25-4.29,5.51,15.71h-2.5l-1.4-4.24H47.85l-1.4,4.24H44L49.5,22.88Zm61.41,3.81c3.29,0,5.38,2.29,5.38,5.95s-2.08,6-5.38,6-5.38-2.28-5.38-6S110.18,26.69,113.46,26.69Zm12.09.48a3.44,3.44,0,0,1,.78.08v2.17a3.18,3.18,0,0,0-1-.14A2.31,2.31,0,0,0,123,31.53a2.17,2.17,0,0,0,0,.36v6.7h-2.26V27.28h2.15v1.93h0A2.63,2.63,0,0,1,125.55,27.17ZM93.91,22.4c3.23,0,5.43,1.86,5.51,4.56h-2.3c-.14-1.56-1.4-2.5-3.24-2.5s-3.09.95-3.09,2.34c0,1.11.8,1.76,2.77,2.26l1.67.42c3.13.76,4.43,2.05,4.43,4.35,0,2.93-2.27,4.76-5.88,4.76C90.4,38.59,88.11,36.8,88,34H90.3c.17,1.55,1.64,2.57,3.65,2.57s3.3-1,3.3-2.42c0-1.22-.83-1.95-2.81-2.44l-2-.49c-2.8-.7-4.1-2-4.1-4.23C88.37,24.26,90.66,22.4,93.91,22.4ZM132,26.69c3.12,0,5.08,2.21,5.08,5.73v.82h-8v.14a3,3,0,0,0,2.66,3.28h.37a2.55,2.55,0,0,0,2.6-1.63H137c-.31,2.11-2.31,3.55-4.85,3.55-3.28,0-5.32-2.26-5.32-5.89S128.84,26.69,132,26.69Zm-102.44-9,.35,0a6.26,6.26,0,0,1,4.95,2.74A6.31,6.31,0,0,0,32,25.66a6.07,6.07,0,0,0,3.62,5.58,14,14,0,0,1-1.88,3.92c-1.11,1.7-2.28,3.36-4.12,3.39s-2.4-1.08-4.46-1.08-2.72,1.05-4.44,1.12-3.11-1.81-4.26-3.49c-2.29-3.43-4.09-9.67-1.69-13.92a6.6,6.6,0,0,1,5.56-3.46c1.76,0,3.39,1.22,4.47,1.22s2.65-1.19,4.48-1.29Zm75,6.67V27h2.14V28.9h-2.14v6.34c0,1,.43,1.44,1.37,1.44a6.48,6.48,0,0,0,.76-.06v1.86a6.09,6.09,0,0,1-1.28.11c-2.27,0-3.16-.87-3.16-3.1V28.9H100.6V27h1.63V24.31ZM64.29,29.15c-1.79,0-3,1.55-3,3.82s1.2,3.82,3,3.82,3-1.5,3-3.82S66.12,29.15,64.29,29.15Zm12.17,0c-1.79,0-3,1.55-3,3.82s1.21,3.82,3,3.82,3-1.5,3-3.82S78.28,29.15,76.46,29.15Zm37-.5c-1.88,0-3,1.49-3,4s1.13,4,3,4,3-1.47,3-4S115.35,28.65,113.46,28.65ZM50.79,25.49h-.07l-2.27,6.9h4.61ZM132,28.62a2.89,2.89,0,0,0-2.87,2.92v0h5.63a2.77,2.77,0,0,0-2.55-2.95ZM51.47,14.1a3.64,3.64,0,0,1,0,.66c0,2.44-1.26,3.83-3.42,3.83H45.4V11H48A3.27,3.27,0,0,1,51.47,14.1Zm59.41.46a1.88,1.88,0,0,1,0,.41v3.62h-1.08V15.24c0-.9-.39-1.34-1.19-1.34a1.26,1.26,0,0,0-1.31,1.22v3.47h-1.08V13h1v.89h.08a1.67,1.67,0,0,1,1.64-1A1.8,1.8,0,0,1,110.88,14.56ZM75.34,10.5v8.09H74.4V10.5ZM129,12.88c1.57,0,2.52,1,2.52,2.77V16h-4v.06a1.47,1.47,0,0,0,1.36,1.57H129a1.36,1.36,0,0,0,1.34-.67h1.08A2.3,2.3,0,0,1,129,18.58a2.53,2.53,0,0,1-2.63-2.43,1.79,1.79,0,0,1,0-.4,2.55,2.55,0,0,1,2.24-2.85Zm-8.11-2.38v3.21h.08a1.65,1.65,0,0,1,1.65-1.05,1.84,1.84,0,0,1,1.88,1.81,2.17,2.17,0,0,1,0,.36v3.76h-1.07V15.12c0-.93-.4-1.4-1.16-1.4A1.28,1.28,0,0,0,120.85,15a.88.88,0,0,0,0,.23v3.4h-1.07V10.5ZM85.78,12.88c1.4,0,2.19.69,2.19,1.85v3.76H86.91v-.77h-.09a1.89,1.89,0,0,1-1.67.86A1.67,1.67,0,0,1,83.3,17.1a.86.86,0,0,1,0-.16c0-1,.75-1.57,2.07-1.65l1.51-.09v-.47c0-.58-.39-.91-1.14-.91s-1,.22-1.16.61H83.5C83.62,13.49,84.52,12.88,85.78,12.88Zm-25.67,0,1,4.36h.08l1.18-4.36h1.09l1.18,4.36h.09l1-4.36h1.14l-1.58,5.71H64.16L63,14.38h-.09l-1.18,4.21H60.54L59,12.88Zm12.41,1.68a1.88,1.88,0,0,1,0,.41v3.62H71.43V15.24c0-.9-.39-1.34-1.19-1.34a1.26,1.26,0,0,0-1.31,1.22,1.34,1.34,0,0,0,0,.2v3.27H67.85V13h1v.89H69a1.67,1.67,0,0,1,1.64-1A1.8,1.8,0,0,1,72.52,14.56Zm44.62-3.11v1.44h1.23v.95h-1.23v2.93c0,.59.24.86.8.86.15,0,.29,0,.43,0v.94a4.07,4.07,0,0,1-.61.05c-1.25,0-1.75-.44-1.75-1.53V13.84h-.91v-.95H116V11.45ZM95,10.5v8h-1v-.91h-.08a1.9,1.9,0,0,1-1.73,1c-1.41,0-2.29-1.15-2.29-3s.89-3,2.29-3a1.8,1.8,0,0,1,1.69,1h.08V10.5Zm9.82,4.74a4,4,0,0,1,0,.49,2.58,2.58,0,1,1-5.13.51,4.34,4.34,0,0,1,0-.51,2.58,2.58,0,1,1,5.13-.49ZM58,15.24a2,2,0,0,1,0,.49,2.57,2.57,0,1,1-5.12.51,4.34,4.34,0,0,1,0-.51,2.6,2.6,0,0,1,2.32-2.84A2.57,2.57,0,0,1,58,15.24Zm24.33,0a2,2,0,0,1,0,.49,2.57,2.57,0,1,1-5.12.51,2.18,2.18,0,0,1,0-.51,2.57,2.57,0,1,1,5.12-.49Zm4.53.76-1.36.09c-.77.05-1.12.31-1.12.79s.44.79,1,.79a1.32,1.32,0,0,0,1.44-1.16V16Zm-7.09-2.16c-.93,0-1.45.7-1.45,1.89s.52,1.9,1.45,1.9,1.46-.7,1.46-1.9S80.71,13.84,79.78,13.84Zm22.46,0c-.94,0-1.46.7-1.46,1.89s.52,1.9,1.46,1.9,1.45-.7,1.45-1.9S103.16,13.84,102.24,13.84Zm-46.78,0c-.94,0-1.46.7-1.46,1.89s.52,1.9,1.46,1.9,1.45-.7,1.45-1.9S56.38,13.84,55.46,13.84Zm37-.17c-.91,0-1.47.74-1.47,1.95s.55,2,1.47,2,1.49-.74,1.49-2S93.34,13.67,92.43,13.67ZM47.9,12.06H46.53v5.46H47.9a2.33,2.33,0,0,0,2.42-2.25,2.68,2.68,0,0,0,0-.49,2.39,2.39,0,0,0-2-2.7A2.16,2.16,0,0,0,47.9,12.06ZM29.94,11a5.89,5.89,0,0,1-1.43,4.31,5.35,5.35,0,0,1-4.15,1.88A5.55,5.55,0,0,1,25.82,13,6.45,6.45,0,0,1,29.94,11Zm99,2.83a1.42,1.42,0,0,0-1.46,1.39v0h2.85a1.35,1.35,0,0,0-1.26-1.42Z"></path></g></g></g></g></g></svg>