<?xml version="1.0" encoding="utf-8"?>
<!-- Generator: Adobe Illustrator 24.1.0, SVG Export Plug-In . SVG Version: 6.00 Build 0)  -->
<svg version="1.1" id="Capa_1" xmlns="http://www.w3.org/2000/svg" xmlns:xlink="http://www.w3.org/1999/xlink" x="0px" y="0px"
	 viewBox="0 0 274 56" style="enable-background:new 0 0 274 56;" xml:space="preserve">
<style type="text/css">
	.st0{fill-rule:evenodd;clip-rule:evenodd;fill:#00CDC4;}
	.st1{fill-rule:evenodd;clip-rule:evenodd;fill:#FF4560;}
	.st2{fill-rule:evenodd;clip-rule:evenodd;fill:#FFC843;}
	.st3{fill-rule:evenodd;clip-rule:evenodd;fill:#561B00;}
	.st4{fill-rule:evenodd;clip-rule:evenodd;fill:#009EC3;}
	.st5{fill-rule:evenodd;clip-rule:evenodd;fill:#FFFFFF;}
	.st6{fill-rule:evenodd;clip-rule:evenodd;fill:#336697;}
	.st7{fill-rule:evenodd;clip-rule:evenodd;}
	.st8{fill-rule:evenodd;clip-rule:evenodd;fill:#F58F02;}
	.st9{fill:#F0C650;}
	.st10{fill:#4C2108;}
	.st11{fill:#589CBF;}
	.st12{fill:#FFFFFF;}
	.st13{fill:#466490;}
	.st14{fill:#DC8D22;}
	.st15{fill:#74A450;}
	.st16{fill:#4E723D;}
	.st17{fill:#F5DB59;}
	.st18{fill:#243B2C;}
</style>
<g id="DESKTOP_1_">
	<g id="_x21_-design-to-developers-_x28_Desktop_x29__1_" transform="translate(-372.000000, -12.000000)">
		<g id="nav-menu-level-01_1_">
			<g id="Group-15_1_" transform="translate(372.000000, 12.000000)">
				<path id="Logo_1_" class="st0" d="M158.3,14.3c0.5,0,1,0.4,1,0.9l0,0.1v24.4c0,3.5-2,7.4-5.2,9.3c-1.9,1.3-4.3,2-6.8,1.9
					c-1-0.1-2.1-0.2-3.1-0.5c-0.5-0.2-0.8-0.7-0.7-1.3l0-0.1l1.2-2.9c0.5-1.2,1.6-0.8,1.6-0.8c0.4,0.1,0.8,0.2,1.2,0.2
					c2.9,0.2,5.4-1.9,6.2-4.4c0.1-0.3,0.1-0.6,0.1-0.9l0-0.3v-5c-1.9,2.1-4.6,3.3-7.5,3.3c-6.3,0-11.3-5.2-11.3-11.9
					c0-6.6,5-11.8,11.3-11.8c2.9,0,5.4,1.1,7.3,3l0.2,0.3v-2.2c0-0.5,0.4-1,0.9-1l0.1,0H158.3z M175.4,14.3
					c6.5,0,11.8,5.3,11.8,11.9c0,3.1-1.2,6.1-3.5,8.4c-2.2,2.3-5.2,3.5-8.3,3.5c-3.1,0-6.1-1.3-8.3-3.5c-2.2-2.3-3.5-5.2-3.5-8.4
					C163.6,19.7,168.9,14.3,175.4,14.3z M195.8,14.3c0.6,0,1,0.5,1,1l0,0v9.5l7.9-10.2c0.2-0.3,0.5-0.4,0.8-0.4l0,0h3.6
					c0.9,0,1.4,1,0.8,1.7l0,0l-7.8,10.1l7.9,10.1c0.5,0.7,0,1.7-0.8,1.7l0,0h-3.6c-0.3,0-0.6-0.1-0.8-0.4l0,0l-8-10.3v9.6
					c0,0.6-0.5,1-1,1l0,0h-3.3c-0.6,0-1-0.5-1-1l0,0V15.4c0-0.6,0.5-1,1-1l0,0H195.8z M233.7,14.3c6.5,0,11.8,5.3,11.8,11.8
					c0,6.4-5.1,11.6-11.5,11.8l-0.3,0l-8.6,0c-0.5,0-1-0.4-1-0.9l0-0.1V15.3c0-0.5,0.4-1,0.9-1l0.1,0L233.7,14.3z M218.7,14.3
					c0.6,0,1,0.5,1,1v21.5c0,0.6-0.5,1-1,1h-3.3c-0.6,0-1-0.5-1-1V15.3c0-0.6,0.5-1,1-1H218.7z M106,14.3c0.6,0,1,0.5,1,1v21.5
					c0,0.6-0.5,1-1,1h-3.3c-0.6,0-1-0.5-1-1V15.3c0-0.6,0.5-1,1-1H106z M86.6,14.3c0.6,0,1,0.5,1,1l0,0v14.9c0,1.6,1,2.6,2.4,2.6
					l0,0h6.4c0.6,0,1,0.5,1,1l0,0v2.9c0,0.6-0.5,1-1,1c-0.9,0-7.7,0-7.7,0c-4.2-0.1-6.5-3.7-6.5-7.2l0,0V15.4c0-0.6,0.5-1,1-1l0,0
					H86.6z M256.3,14.3l0.4,0c2.6,0.2,5,1.1,6.1,1.6c0.3,0.1,0.5,0.4,0.6,0.7c0.1,0.3,0.1,0.6-0.1,0.9l0,0l-1.3,2.2
					c-0.3,0.5-0.9,0.7-1.4,0.5c-1-0.5-2.6-1.1-4.2-1.3c-0.9-0.1-1.8,0.1-2.4,0.6c-0.4,0.4-0.7,0.8-0.7,1.4l0,0l0,0.1
					c0,1.2,2.2,1.9,4.5,2.7l0,0l0.1,0c2.7,0.9,7.3,2.4,7.2,7.1l0,0l0,0.1c-0.1,2.2-1,4-2.6,5.3c-1.5,1.1-3.5,1.7-5.6,1.7
					c-0.1,0-0.2,0-0.3,0c-0.3,0-0.6,0-0.9-0.1c-3.6-0.3-6-1.8-7.1-2.6c-0.2-0.2-0.4-0.4-0.4-0.7c0-0.3,0-0.6,0.2-0.8l0,0l1.6-2
					c0.4-0.4,1-0.6,1.5-0.2c1,0.7,2.8,1.5,5.5,1.8c1,0.1,2-0.2,2.6-0.7c0.4-0.4,0.7-0.9,0.7-1.5l0,0l0-0.1c0-1.2-1.5-1.9-4.4-2.8
					c-3-0.9-7.5-2.3-7.4-7l0,0l0-0.1c0-2,0.9-3.8,2.5-5c1.6-1.2,3.7-1.9,5.8-1.7L256.3,14.3z M115.6,14.2c0.6,0,1,0.5,1,1l0,0V17
					c1.7-2.1,3.6-2.8,6-2.8c2.4,0,4.6,1.1,6.1,2.8c1.5,1.6,2.3,3.9,2.3,6.5l0,0v13.3c0,0.6-0.5,1-1,1l0,0h-3.3c-0.6,0-1-0.5-1-1l0,0
					V23.9c0-2.9-1.5-4.7-4-4.7c-3.1,0-5,2.7-5.2,5.5l0,0v12.2c0,0.6-0.5,1-1,1l0,0h-3.3c-0.6,0-1-0.5-1-1l0,0V15.3c0-0.6,0.5-1,1-1
					l0,0L115.6,14.2z M175.3,19.2c-1.1,0-2.2,0.3-3.1,0.8c-2.3,1.2-3.9,3.6-3.9,6.3c0,3.9,3.2,7.1,7.1,7.1c3.9,0,7.1-3.2,7.1-7.1
					c0-0.9-0.2-1.7-0.4-2.4c0,0.2,0,0.3,0,0.5c0,1.7-1.4,3-3,3c-1.7,0-3-1.4-3-3c0-1.7,1.4-3,3-3c0.8,0,1.5,0.3,2,0.8
					c-1.2-1.7-3.2-2.8-5.4-2.8C175.5,19.2,175.4,19.2,175.3,19.2z M233.3,18.9h-4v14.4h4c3.9,0,7.2-3.2,7.2-7.2
					C240.5,22.1,237.3,18.9,233.3,18.9z M147.3,19c-3.8,0-6.8,3.2-6.8,7.1c0,3.9,3.1,7.1,6.8,7.1c3.5,0,6.1-2.6,6.5-5.2l0-0.2l0-1.8
					c-0.5,0.8-1.5,1.3-2.5,1.3c-1.7,0-3-1.4-3-3c0-1.7,1.4-3,3-3c0.4,0,0.8,0.1,1.1,0.2C151.2,20,149.3,19,147.3,19z"/>
				<g id="Billy_icon_1_">
					<path id="Background_1_" class="st0" d="M22.6,0.5h27.5c7.6,0,13.8,6.2,13.8,13.8v27.5c0,7.6-6.2,13.8-13.8,13.8H22.6
						c-7.6,0-13.8-6.2-13.8-13.8V14.2C8.8,6.6,15,0.5,22.6,0.5z"/>
					<path id="Fill-4_1_" class="st1" d="M33.2,17.8c-0.1,0-0.3,0-0.4-0.1c-0.5-0.2-0.7-0.8-0.5-1.3l3.8-8.5
						c0.2-0.5,0.8-0.7,1.3-0.5c0.5,0.2,0.7,0.8,0.5,1.3L34,17.2C33.9,17.6,33.5,17.8,33.2,17.8"/>
					<path id="Fill-6_1_" class="st1" d="M36.3,18c-0.1,0-0.3,0-0.4-0.1c-0.5-0.2-0.7-0.8-0.5-1.3L38.8,9C39,8.6,39.5,8.3,40,8.5
						c0.5,0.2,0.7,0.8,0.5,1.3l-3.3,7.6C37,17.8,36.6,18,36.3,18"/>
					<path id="Fill-8_1_" class="st1" d="M39,18.8c-0.1,0-0.3,0-0.4-0.1c-0.5-0.2-0.7-0.8-0.5-1.3l3.1-7c0.2-0.5,0.8-0.7,1.3-0.5
						c0.5,0.2,0.7,0.8,0.5,1.3l-3.1,7C39.7,18.6,39.4,18.8,39,18.8"/>
					<path id="Fill-10_1_" class="st2" d="M51.2,26c-0.3,0-0.5-0.1-0.8-0.3c-0.4-0.4-0.4-1.1,0-1.6l5.6-5.9c0.4-0.4,1.1-0.5,1.5,0
						c0.4,0.4,0.4,1.1,0,1.6L52,25.6C51.8,25.9,51.5,26,51.2,26"/>
					<path id="Fill-12_1_" class="st2" d="M22.7,26.4c-0.3,0-0.6-0.1-0.9-0.4l-7.1-9.1c-0.4-0.5-0.3-1.2,0.2-1.5
						c0.5-0.4,1.2-0.3,1.5,0.2l7.1,9.1c0.4,0.5,0.3,1.2-0.2,1.5C23.2,26.3,23,26.4,22.7,26.4"/>
					<path id="Fill-14_1_" class="st2" d="M32.7,36.8c-0.3-0.4-0.9-0.6-1.3-0.2c-0.4,0.3-0.5,0.9-0.2,1.4l6.6,9.6l1.7-0.9L32.7,36.8
						z"/>
					<path id="Fill-16_1_" class="st3" d="M39.3,48.4C39.4,48.4,39.4,48.4,39.3,48.4c0.5-0.4,0.6-1,0.3-1.4l-0.3-0.4l-1.7,0.9
						l0.4,0.6C38.4,48.5,38.9,48.6,39.3,48.4"/>
					<path id="Fill-18_1_" class="st2" d="M36.1,36.9c-0.3-0.4-0.9-0.6-1.3-0.2c-0.4,0.3-0.5,0.9-0.2,1.4l6.6,9.6l1.7-0.9L36.1,36.9
						z"/>
					<path id="Fill-20_1_" class="st3" d="M42.8,48.5C42.8,48.5,42.8,48.5,42.8,48.5c0.5-0.4,0.6-1,0.3-1.4l-0.3-0.4l-1.7,0.9
						l0.4,0.6C41.8,48.6,42.3,48.7,42.8,48.5"/>
					<path id="Fill-22_1_" class="st4" d="M48.2,39.5c0.3-0.2,0.5-0.4,0.7-0.7H23.5c0.2,0.2,0.5,0.4,0.7,0.7c3.3,2.8,7.3,4.2,12,4.2
						C40.9,43.7,44.9,42.3,48.2,39.5"/>
					<path id="Fill-24_1_" class="st2" d="M36.2,14.9c-4.7,0-8.7,1.4-12,4.2c-3.3,2.8-5,6.2-5,10.2c0,2.9,0.9,5.5,2.7,7.8
						c0.4,0.6,1,1.1,1.5,1.7h25.4c0.4-0.3,0.7-0.7,1-1.1c2.1-2.4,3.2-5.2,3.2-8.4c0-4-1.7-7.4-5-10.2C44.9,16.3,40.9,14.9,36.2,14.9
						"/>
					<path id="Fill-26_1_" class="st5" d="M26.8,16.4c-2.4-0.1-4.5,0.8-6.4,2.7c-1.8,1.9-2.8,4.2-3,6.9c-0.1,2.7,0.6,5,2.2,7
						c1.6,2,3.6,3,6.1,3c2.4,0.1,4.5-0.8,6.4-2.7c1.8-1.9,2.8-4.2,3-6.9s-0.6-5-2.2-7C31.2,17.5,29.2,16.5,26.8,16.4"/>
					<path id="Fill-28_1_" class="st6" d="M26.6,17.5c-2.1,0-3.8,0.8-5.4,2.4c-1.7,1.7-2.5,3.7-2.7,6.2c-0.1,2.5,0.5,4.5,1.9,6.3
						c1.4,1.7,3.1,2.6,5.3,2.6c2.1,0.1,4-0.7,5.6-2.4c1.7-1.7,2.5-3.7,2.7-6.2c0.1-2.5-0.5-4.5-1.9-6.3c-1.4-1.7-3.1-2.6-5.3-2.6
						C26.7,17.5,26.6,17.5,26.6,17.5 M26,37.1c-0.1,0-0.2,0-0.3,0c-2.7-0.1-5-1.2-6.8-3.4c-1.8-2.2-2.6-4.8-2.4-7.7
						c0.2-3,1.3-5.5,3.3-7.5c2-2.1,4.4-3.1,7.1-3c2.7,0.1,5,1.2,6.8,3.4c1.8,2.2,2.6,4.8,2.4,7.7c-0.2,3-1.3,5.5-3.3,7.5
						C30.9,36.1,28.6,37.1,26,37.1"/>
					<path id="Fill-30_1_" class="st7" d="M29.9,23.9c-0.7,0.1-1.3,0.5-1.7,1c-0.4,0.6-0.6,1.3-0.5,2s0.4,1.3,1,1.8
						c0.6,0.4,1.2,0.6,2,0.5c0.7-0.1,1.3-0.5,1.7-1.1c0.4-0.6,0.6-1.3,0.5-2c-0.1-0.7-0.5-1.3-1-1.8C31.3,23.9,30.7,23.8,29.9,23.9"
						/>
					<path id="Fill-32_1_" class="st8" d="M30.4,34c-1.1,0-2.1-0.9-2.1-2.1c-0.1-1.2,0.9-2.2,2-2.3L42,29.1c1.2-0.1,2.2,0.9,2.2,2.1
						c0.1,1.2-0.9,2.2-2,2.3L30.5,34C30.5,34,30.5,34,30.4,34"/>
					<path id="Fill-34_1_" class="st5" d="M44.7,16.7c-2.4-0.1-4.5,0.8-6.4,2.7c-1.8,1.9-2.8,4.2-3,6.9c-0.1,2.7,0.6,5,2.2,7
						c1.6,2,3.6,3,6.1,3c2.4,0.1,4.5-0.8,6.4-2.7c1.8-1.9,2.8-4.2,3-6.9c0.1-2.7-0.6-5-2.2-7C49.1,17.8,47.1,16.8,44.7,16.7"/>
					<path id="Fill-36_1_" class="st6" d="M44.5,17.8c-2.1,0-3.8,0.8-5.4,2.4c-1.7,1.7-2.5,3.7-2.7,6.2c-0.1,2.5,0.5,4.5,1.9,6.3
						c1.4,1.7,3.1,2.6,5.3,2.6c2.1,0.1,4-0.7,5.6-2.4c1.7-1.7,2.5-3.7,2.7-6.2c0.1-2.5-0.5-4.5-1.9-6.3c-1.4-1.7-3.1-2.6-5.3-2.6
						C44.6,17.8,44.5,17.8,44.5,17.8L44.5,17.8z M43.8,37.4c-0.1,0-0.2,0-0.3,0c-2.7-0.1-5-1.2-6.8-3.4c-1.8-2.2-2.6-4.8-2.4-7.7
						c0.2-3,1.3-5.5,3.3-7.5c2-2.1,4.4-3.1,7.1-3c2.7,0.1,5,1.2,6.8,3.4c1.8,2.2,2.6,4.8,2.4,7.7c-0.2,3-1.3,5.5-3.3,7.5
						C48.8,36.4,46.5,37.4,43.8,37.4L43.8,37.4z"/>
					<path id="Fill-38_1_" class="st7" d="M31.1,31.1c0.4,0.4,0.4,1,0,1.3c-0.4,0.4-0.9,0.4-1.3,0c-0.4-0.4-0.4-1,0-1.3
						C30.2,30.8,30.7,30.8,31.1,31.1"/>
					<path id="Fill-40_1_" class="st7" d="M45.3,28.4C45.3,28.4,45.3,28.4,45.3,28.4l-7.3-0.1c-0.3,0-0.6-0.2-0.6-0.5
						c0-0.3,0.1-0.6,0.4-0.7l6.6-2.2c0.3-0.1,0.7,0.1,0.8,0.4c0.1,0.3-0.1,0.7-0.4,0.8l-3,1l3.6,0.1c0.3,0,0.6,0.3,0.6,0.6
						C45.9,28.1,45.6,28.4,45.3,28.4"/>
				</g>
			</g>
		</g>
	</g>
</g>
</svg>
