<svg xmlns="http://www.w3.org/2000/svg" viewBox="0 0 170.5 52.27"><defs><style>.cls-1{fill:#f8f9fd;fill-rule:evenodd;}</style></defs><g id="Capa_2" data-name="Capa 2"><g id="Capa_1-2" data-name="Capa 1"><g id="DESKTOP"><g id="_-design-to-developers-_Desktop_" data-name="!-design-to-developers-(Desktop)"><g id="splash-screen"><path id="googlePlayBadge" class="cls-1" d="M162.66,0a7.83,7.83,0,0,1,7.84,7.82h0V44.45a7.83,7.83,0,0,1-7.84,7.82H7.84A7.83,7.83,0,0,1,0,44.45H0V7.82A7.83,7.83,0,0,1,7.84,0H162.66Zm0,1.24H7.84a6.6,6.6,0,0,0-6.6,6.58h0V44.45A6.6,6.6,0,0,0,7.84,51H162.66a6.6,6.6,0,0,0,6.6-6.58h0V7.82a6.6,6.6,0,0,0-6.6-6.58ZM96.82,28.34a3.7,3.7,0,0,1,2.65,1l.12.13h.08v-.85h2.19v9.43c0,3.88-2.29,5.47-5,5.47a5,5,0,0,1-4.58-2.94l-.07-.17,2-.83a2.9,2.9,0,0,0,2.64,1.87,2.64,2.64,0,0,0,2.8-2.84v-1h-.08a3.57,3.57,0,0,1-2.77,1.19,5.25,5.25,0,0,1,0-10.5Zm52,.31,2.74,6.69h.08l2.65-6.69h2.56l-6.34,14.56h-2.4L150.41,38l-4.11-9.35ZM29.72,26.81l4.76,4.81-17.65,10a2.42,2.42,0,0,1-1.92.34l-.15-.06ZM14.09,11l15,15.17-15,15.16a2.53,2.53,0,0,1-.38-1.25V12.52A2.68,2.68,0,0,1,14.09,11Zm97.74,17.33a4.85,4.85,0,0,1,4.45,3.21l0,.13.24.6-7,2.9a2.67,2.67,0,0,0,2.55,1.59,2.94,2.94,0,0,0,2.46-1.27l.13-.18,1.79,1.2a5.24,5.24,0,0,1-4.38,2.32,5.13,5.13,0,0,1-5.21-5.25A5,5,0,0,1,111.83,28.34ZM60.35,22.53a7.72,7.72,0,0,1,5.38,2l.22.2-1.58,1.57a5.64,5.64,0,0,0-4-1.59,5.93,5.93,0,0,0,0,11.86A5.44,5.44,0,0,0,64.47,35a4.44,4.44,0,0,0,1.17-2.47l0-.33H60.35V30h7.51A7.27,7.27,0,0,1,68,31.34a7.4,7.4,0,0,1-1.93,5.22,7.49,7.49,0,0,1-5.7,2.28,8.16,8.16,0,1,1,0-16.31ZM74,28.34a5.25,5.25,0,1,1-5.27,5.25A5.18,5.18,0,0,1,74,28.34Zm11.51,0a5.25,5.25,0,1,1-5.28,5.25A5.18,5.18,0,0,1,85.55,28.34Zm55.9,0c2.56,0,4.56,1.43,4.68,4V38.5h-2.23V37.31h-.07a3.28,3.28,0,0,1-3,1.51,3.57,3.57,0,0,1-3.83-3.4c0-2.26,2.24-3.48,4.45-3.48a5.21,5.21,0,0,1,2.29.54l.11.06v-.16a2.21,2.21,0,0,0-2.42-2,2.25,2.25,0,0,0-2,1l-.1.18-2-.86A4.33,4.33,0,0,1,141.45,28.31Zm-5.66-5.22V38.52h-2.31V23.09Zm-30,0V38.52h-2.31V23.09Zm21.38,0a4.79,4.79,0,1,1,.24,9.58h-3.45v5.84h-2.31V23.09ZM74,30.41a3.19,3.19,0,1,0,3,3.18A3,3,0,0,0,74,30.41Zm23,0a3.19,3.19,0,0,0,0,6.36,2.93,2.93,0,0,0,2.81-3.16A3,3,0,0,0,97,30.41Zm-11.47,0a3.19,3.19,0,1,0,3,3.18A3,3,0,0,0,85.55,30.41Zm56.26,3.4c-1.13,0-2.45.46-2.45,1.65,0,.93,1.06,1.31,1.81,1.31a2.78,2.78,0,0,0,2.74-2.44A4.05,4.05,0,0,0,141.81,33.81Zm-29.9-3.44a2.85,2.85,0,0,0-2.74,2.82v.24l4.7-1.95A2,2,0,0,0,111.91,30.37Zm-76.6-9.18,5.61,3.2c1.67.95,1.73,2.48.18,3.46l-.18.11-5.61,3.2-5-5Zm91.89,4h-3.27v5.29h3.27a2.65,2.65,0,1,0,0-5.29ZM16.61,10.6l.22.11,17.65,10-4.76,4.82-15-15.11A2.14,2.14,0,0,1,16.61,10.6ZM56.31,10a3.76,3.76,0,0,1,1.52.31,3,3,0,0,1,1.16.82l-.65.66a2.5,2.5,0,0,0-2-.88,2.85,2.85,0,0,0-2.88,3,2.91,2.91,0,0,0,5,2.13,2.35,2.35,0,0,0,.62-1.5H56.31v-.89H59.9a2.71,2.71,0,0,1,.05.56A3.31,3.31,0,0,1,59,16.6a3.59,3.59,0,0,1-2.72,1.1,3.82,3.82,0,0,1-3.85-3.87A3.81,3.81,0,0,1,56.31,10Zm33.28,0a3.62,3.62,0,0,1,2.71,1.12,3.78,3.78,0,0,1,1.1,2.75,3.76,3.76,0,0,1-1.09,2.74,3.84,3.84,0,0,1-5.44,0,3.8,3.8,0,0,1-1.09-2.74,3.82,3.82,0,0,1,1.09-2.75A3.64,3.64,0,0,1,89.59,10Zm6.31.16,3.6,5.77h0l0-1.43V10.12h1v7.41h-1l-3.77-6h0l0,1.43v4.61h-1V10.12Zm-13.23,0V11H80.6v6.5h-1V11H77.57v-.91Zm-6.3,0v7.41h-1V10.12Zm-4.64,0V11H69.66v6.5h-1V11H66.64v-.91Zm-6.08,0V11H62.27v2.35h3v.89h-3v2.35h3.38v.91H61.32V10.12Zm23.94.75a2.7,2.7,0,0,0-2,.83,2.9,2.9,0,0,0-.83,2.13A2.88,2.88,0,0,0,87.58,16a2.71,2.71,0,0,0,2,.84,2.68,2.68,0,0,0,2-.84,2.88,2.88,0,0,0,.83-2.12,2.9,2.9,0,0,0-.83-2.13A2.67,2.67,0,0,0,89.59,10.87Z"></path></g></g></g></g></g></svg>